<svg width="28" height="28" viewBox="0 0 28 28" fill="none" xmlns="http://www.w3.org/2000/svg">
<path d="M17.4999 26.5416H10.4999C4.16492 26.5416 1.45825 23.8349 1.45825 17.4999V10.4999C1.45825 4.16492 4.16492 1.45825 10.4999 1.45825H17.4999C23.8349 1.45825 26.5416 4.16492 26.5416 10.4999V17.4999C26.5416 23.8349 23.8349 26.5416 17.4999 26.5416ZM10.4999 3.20825C5.12159 3.20825 3.20825 5.12159 3.20825 10.4999V17.4999C3.20825 22.8783 5.12159 24.7916 10.4999 24.7916H17.4999C22.8783 24.7916 24.7916 22.8783 24.7916 17.4999V10.4999C24.7916 5.12159 22.8783 3.20825 17.4999 3.20825H10.4999Z" fill="white"/>
<path d="M21 17.7916C20.5217 17.7916 20.125 17.3949 20.125 16.9166C20.125 16.1116 19.4717 15.4583 18.6667 15.4583H9.33333C8.52833 15.4583 7.875 16.1116 7.875 16.9166C7.875 17.3949 7.47833 17.7916 7 17.7916C6.52167 17.7916 6.125 17.3949 6.125 16.9166V9.04159C6.125 7.26825 7.56 5.83325 9.33333 5.83325H18.6667C20.44 5.83325 21.875 7.26825 21.875 9.04159V16.9166C21.875 17.3949 21.4783 17.7916 21 17.7916ZM9.33333 13.7083H18.6667C19.1917 13.7083 19.6933 13.8366 20.125 14.0583V9.04159C20.125 8.23659 19.4717 7.58325 18.6667 7.58325H9.33333C8.52833 7.58325 7.875 8.23659 7.875 9.04159V14.0583C8.30667 13.8366 8.80833 13.7083 9.33333 13.7083Z" fill="white"/>
<path d="M22.1666 19.25H20.9999C20.5216 19.25 20.1249 18.8533 20.1249 18.375C20.1249 17.8967 20.5216 17.5 20.9999 17.5H22.1666C22.6449 17.5 23.0416 17.8967 23.0416 18.375C23.0416 18.8533 22.6449 19.25 22.1666 19.25ZM6.99992 19.25H5.83325C5.35492 19.25 4.95825 18.8533 4.95825 18.375C4.95825 17.8967 5.35492 17.5 5.83325 17.5H6.99992C7.47825 17.5 7.87492 17.8967 7.87492 18.375C7.87492 18.8533 7.47825 19.25 6.99992 19.25ZM20.9999 17.2083C20.5216 17.2083 20.1249 16.8117 20.1249 16.3333V12.8333C20.1249 12.0283 19.4716 11.375 18.6666 11.375H9.33325C8.52825 11.375 7.87492 12.0283 7.87492 12.8333V16.3333C7.87492 16.8117 7.47825 17.2083 6.99992 17.2083C6.52159 17.2083 6.12492 16.8117 6.12492 16.3333V12.8333C6.12492 11.06 7.55992 9.625 9.33325 9.625H18.6666C20.4399 9.625 21.8749 11.06 21.8749 12.8333V16.3333C21.8749 16.8117 21.4783 17.2083 20.9999 17.2083Z" fill="white"/>
<path d="M14 22.1666C12.215 22.1666 10.71 20.9183 10.3134 19.2499H7C6.52167 19.2499 6.125 18.8533 6.125 18.3749V16.9166C6.125 15.1433 7.56 13.7083 9.33333 13.7083H18.6667C20.44 13.7083 21.875 15.1433 21.875 16.9166V18.3749C21.875 18.8533 21.4783 19.2499 21 19.2499H17.6867C17.29 20.9183 15.785 22.1666 14 22.1666ZM7.875 17.4999H11.0833C11.5617 17.4999 11.9583 17.8966 11.9583 18.3749C11.9583 19.4949 12.88 20.4166 14 20.4166C15.12 20.4166 16.0417 19.4949 16.0417 18.3749C16.0417 17.8966 16.4383 17.4999 16.9167 17.4999H20.125V16.9166C20.125 16.1116 19.4717 15.4583 18.6667 15.4583H9.33333C8.52833 15.4583 7.875 16.1116 7.875 16.9166V17.4999Z" fill="white"/>
</svg>
