<svg width="28" height="28" viewBox="0 0 28 28" fill="none" xmlns="http://www.w3.org/2000/svg">
<path d="M9.33325 6.70825C8.85492 6.70825 8.45825 6.31158 8.45825 5.83325V2.33325C8.45825 1.85492 8.85492 1.45825 9.33325 1.45825C9.81159 1.45825 10.2083 1.85492 10.2083 2.33325V5.83325C10.2083 6.31158 9.81159 6.70825 9.33325 6.70825ZM18.6666 6.70825C18.1883 6.70825 17.7916 6.31158 17.7916 5.83325V2.33325C17.7916 1.85492 18.1883 1.45825 18.6666 1.45825C19.1449 1.45825 19.5416 1.85492 19.5416 2.33325V5.83325C19.5416 6.31158 19.1449 6.70825 18.6666 6.70825Z" fill="white"/>
<path d="M17.5 26.5416H10.5C3.94333 26.5416 2.625 23.4499 2.625 18.4566V11.2583C2.625 5.72825 4.49167 3.47659 9.28667 3.20825H18.6667C18.6783 3.20825 18.7017 3.20825 18.7133 3.20825C23.5083 3.47659 25.375 5.72825 25.375 11.2583V18.4566C25.375 23.4499 24.0567 26.5416 17.5 26.5416ZM9.33333 4.95825C6.06667 5.14492 4.375 6.17158 4.375 11.2583V18.4566C4.375 22.9249 5.22667 24.7916 10.5 24.7916H17.5C22.7733 24.7916 23.625 22.9249 23.625 18.4566V11.2583C23.625 6.18325 21.945 5.14492 18.6433 4.95825H9.33333Z" fill="white"/>
<path d="M24.2084 21.4084H3.79175C3.31341 21.4084 2.91675 21.0118 2.91675 20.5334C2.91675 20.0551 3.31341 19.6584 3.79175 19.6584H24.2084C24.6867 19.6584 25.0834 20.0551 25.0834 20.5334C25.0834 21.0118 24.6867 21.4084 24.2084 21.4084ZM14.0001 9.625C12.5651 9.625 11.3517 10.4067 11.3517 11.9233C11.3517 12.6467 11.6901 13.195 12.2034 13.545C11.4917 13.965 11.0834 14.6417 11.0834 15.435C11.0834 16.8817 12.1917 17.78 14.0001 17.78C15.7967 17.78 16.9167 16.8817 16.9167 15.435C16.9167 14.6417 16.5084 13.9533 15.7851 13.545C16.3101 13.1833 16.6367 12.6467 16.6367 11.9233C16.6367 10.4067 15.4351 9.625 14.0001 9.625ZM14.0001 12.9383C13.3934 12.9383 12.9501 12.5767 12.9501 12.005C12.9501 11.4217 13.3934 11.0833 14.0001 11.0833C14.6067 11.0833 15.0501 11.4217 15.0501 12.005C15.0501 12.5767 14.6067 12.9383 14.0001 12.9383ZM14.0001 16.3333C13.2301 16.3333 12.6701 15.9483 12.6701 15.2483C12.6701 14.5483 13.2301 14.175 14.0001 14.175C14.7701 14.175 15.3301 14.56 15.3301 15.2483C15.3301 15.9483 14.7701 16.3333 14.0001 16.3333Z" fill="white"/>
</svg>
