<svg width="28" height="28" viewBox="0 0 28 28" fill="none" xmlns="http://www.w3.org/2000/svg">
<path d="M20.5332 26.3202H7.4665C5.34315 26.3202 3.4065 24.6868 3.0565 22.5868L1.50482 13.3002C1.25982 11.8535 1.95983 9.9985 3.11483 9.07684L11.1998 2.60178C12.7632 1.34178 15.2248 1.35346 16.7998 2.61346L24.8849 9.07684C26.0282 9.9985 26.7282 11.8535 26.4949 13.3002L24.9432 22.5868C24.5932 24.6518 22.6216 26.3202 20.5332 26.3202ZM13.9882 3.43014C13.3699 3.43014 12.7514 3.61677 12.2964 3.97843L4.2115 10.4535C3.5465 10.9902 3.09151 12.1802 3.23151 13.0202L4.78317 22.3068C4.99317 23.5318 6.21815 24.5702 7.4665 24.5702H20.5332C21.7816 24.5702 23.0064 23.5318 23.2164 22.2952L24.7681 13.0085C24.9081 12.1685 24.4416 10.9668 23.7882 10.4418L15.7032 3.97843C15.2366 3.61677 14.6182 3.43014 13.9882 3.43014Z" fill="white"/>
<path d="M13.9999 18.9583C11.9116 18.9583 10.2083 17.255 10.2083 15.1667C10.2083 13.0783 11.9116 11.375 13.9999 11.375C16.0883 11.375 17.7916 13.0783 17.7916 15.1667C17.7916 17.255 16.0883 18.9583 13.9999 18.9583ZM13.9999 13.125C12.8799 13.125 11.9583 14.0467 11.9583 15.1667C11.9583 16.2867 12.8799 17.2083 13.9999 17.2083C15.1199 17.2083 16.0416 16.2867 16.0416 15.1667C16.0416 14.0467 15.1199 13.125 13.9999 13.125Z" fill="white"/>
</svg>
