<svg width="28" height="28" viewBox="0 0 28 28" fill="none" xmlns="http://www.w3.org/2000/svg">
<g opacity="0.34">
<path d="M23.7761 24.6517C23.5428 24.6517 23.3211 24.5584 23.1578 24.3951L15.7144 16.9517C15.3761 16.6134 15.3761 16.0534 15.7144 15.7151L24.7328 6.69676C24.9544 6.47509 25.2928 6.39342 25.5961 6.47509C25.8994 6.56842 26.1327 6.81342 26.2027 7.11676C26.4243 8.10842 26.5411 9.21676 26.5411 10.5001V17.5001C26.5411 20.7317 25.8644 22.9134 24.3944 24.3951C24.2311 24.5584 23.9861 24.5934 23.7761 24.6517ZM17.5693 16.3334L23.7061 22.4701C24.4411 21.3384 24.7911 19.7284 24.7911 17.5001V10.5001C24.7911 10.0218 24.7793 9.57842 24.7443 9.15842L17.5693 16.3334Z" fill="white"/>
<path d="M7.31491 26.2266C7.24491 26.2266 7.1866 26.2149 7.1166 26.2033C3.25493 25.3166 1.45825 22.5516 1.45825 17.4999V10.4999C1.45825 4.16492 4.16492 1.45825 10.4999 1.45825H17.4999C22.5516 1.45825 25.3166 3.25493 26.2033 7.1166C26.2733 7.40826 26.1799 7.72325 25.9699 7.93325L7.93324 25.9699C7.76991 26.1333 7.54824 26.2266 7.31491 26.2266ZM10.4999 3.20825C5.12158 3.20825 3.20825 5.12159 3.20825 10.4999V17.4999C3.20825 21.5483 4.32826 23.5783 7.0466 24.3833L24.3716 7.05825C23.5783 4.33992 21.5366 3.21991 17.4883 3.21991H10.4999V3.20825Z" fill="white"/>
<path d="M17.5005 26.5416H10.5004C9.2171 26.5416 8.12044 26.4366 7.11711 26.2033C6.80211 26.1333 6.55709 25.9 6.47542 25.5966C6.38209 25.2933 6.47542 24.9666 6.69709 24.7333L15.7155 15.715C16.0538 15.3766 16.6138 15.3766 16.9521 15.715L24.3955 23.1583C24.5588 23.3216 24.6521 23.5433 24.6521 23.7766C24.6521 24.01 24.5588 24.2316 24.3955 24.395C22.9138 25.865 20.7321 26.5416 17.5005 26.5416ZM9.15878 24.745C9.57878 24.78 10.0221 24.7916 10.5004 24.7916H17.5005C19.7405 24.7916 21.3388 24.4416 22.4705 23.7066L16.3338 17.57L9.15878 24.745ZM10.6388 15.5284C9.90379 15.5284 9.16878 15.2601 8.58544 14.7117C6.73044 12.9501 5.98381 11.0135 6.42714 9.12347C6.87048 7.18681 8.56212 5.88013 10.6388 5.88013C12.7155 5.88013 14.4072 7.18681 14.8505 9.12347C15.2822 11.0251 14.5355 12.9501 12.6805 14.7117C12.1088 15.2484 11.3738 15.5284 10.6388 15.5284ZM8.13046 9.50846C7.75713 11.0951 8.83045 12.5185 9.79879 13.4402C10.2771 13.8951 11.0121 13.8951 11.4788 13.4402C12.4355 12.5302 13.5088 11.1068 13.1472 9.50846C12.8322 8.12013 11.5955 7.61846 10.6388 7.61846C9.68212 7.61846 8.45713 8.12013 8.13046 9.50846Z" fill="white"/>
<path d="M10.6755 11.0719C10.0338 11.0719 9.50879 10.5469 9.50879 9.90519C9.50879 9.26352 10.0221 8.73853 10.6755 8.73853H10.6871C11.3288 8.73853 11.8538 9.26352 11.8538 9.90519C11.8538 10.5469 11.3171 11.0719 10.6755 11.0719Z" fill="white"/>
</g>
</svg>
