<svg width="22" height="18" viewBox="0 0 22 18" fill="none" xmlns="http://www.w3.org/2000/svg">
<path d="M0.5 14.625H13.782C14.072 13.9635 14.7327 13.5 15.5 13.5C16.2673 13.5 16.928 13.9635 17.218 14.625H21.5V16.125H17.218C16.928 16.7865 16.2673 17.25 15.5 17.25C14.7327 17.25 14.072 16.7865 13.782 16.125H0.5V14.625ZM0.5 8.25H4.78203C5.072 7.5885 5.7327 7.125 6.5 7.125C7.2673 7.125 7.92805 7.5885 8.21797 8.25H21.5V9.75H8.21797C7.928 10.4115 7.2673 10.875 6.5 10.875C5.7327 10.875 5.07195 10.4115 4.78203 9.75H0.5V8.25ZM0.5 1.875H13.782C14.072 1.2135 14.7327 0.75 15.5 0.75C16.2673 0.75 16.928 1.2135 17.218 1.875H21.5V3.375H17.218C16.928 4.0365 16.2673 4.5 15.5 4.5C14.7327 4.5 14.072 4.0365 13.782 3.375H0.5" fill="white"/>
</svg>
