<svg width="256" height="594" viewBox="0 0 256 594" fill="none" xmlns="http://www.w3.org/2000/svg">
<path opacity="0.07" d="M114.034 28.6216C128.215 19.7171 132.834 5.83033 133.371 0C136.594 4.77027 137.4 17.491 136.594 28.6216C135.788 39.7523 127.731 38.9572 123.702 61.2185C120.48 79.0275 131.491 105.211 137.4 116.077C145.134 161.235 134.177 195.316 127.731 206.712C125.314 216.252 88.2512 270.315 144.651 233.743C211.396 190.463 251.005 200.351 289.679 213.867C328.353 227.383 346.884 306.887 300.959 353.795C264.218 391.321 285.65 399.113 300.959 398.318C290.001 508.988 228.713 649.552 199.439 706H184.936C242.948 624.11 240.53 540.631 243.753 482.592C246.976 424.554 198.633 403.883 196.216 402.293C193.799 400.703 186.548 368.901 209.913 353.795C228.606 341.71 245.096 311.128 251.005 297.347C240.53 312.453 211.847 344.891 180.908 353.795C149.969 362.7 147.068 387.187 149.485 398.318C136.594 405.314 129.074 432.504 126.925 445.225C122.413 548.899 139.548 662.273 148.679 706H132.565C110.005 646.372 99.5312 458.741 81.8055 389.572C65.9121 327.553 94.1598 277.736 112.423 259.98C74.393 293.69 66.497 338.159 67.3028 356.18C6.06879 290.032 55.7542 193.991 88.2512 154.239C86.9084 155.564 78.744 161.394 56.8287 174.115C29.4345 190.016 -14.0738 182.065 4.45752 170.14C22.9889 158.214 13.3203 159.009 30.2402 116.077C43.7762 81.7306 82.6115 72.6141 100.337 72.3491C98.9943 61.4835 99.8537 37.5261 114.034 28.6216Z" fill="white"/>
</svg>
