<svg width="79" height="170" viewBox="0 0 79 170" fill="none" xmlns="http://www.w3.org/2000/svg">
<path d="M27.4656 6.89189C30.881 4.74775 31.9936 1.4039 32.123 0C32.8992 1.14865 33.0932 4.21171 32.8991 6.89189C32.7051 9.57207 30.7645 9.38063 29.7942 14.741C29.018 19.0293 31.6701 25.3341 33.0932 27.9505C34.9561 38.8243 32.3169 47.0308 30.7645 49.7748C30.1823 52.0721 21.2556 65.0901 34.8397 56.2838C50.9155 45.8621 60.4554 48.2432 69.7702 51.4977C79.085 54.7523 83.5483 73.8964 72.487 85.1914C63.6379 94.2275 68.7999 96.1036 72.487 95.9122C69.8478 122.561 55.0864 156.408 48.0357 170H44.5426C58.5148 150.282 57.9326 130.18 58.7089 116.205C59.4851 102.23 47.8416 97.2523 47.2594 96.8694C46.6773 96.4865 44.9307 88.8288 50.5584 85.1914C55.0606 82.2815 59.0323 74.9174 60.4554 71.5991C57.9326 75.2365 51.0242 83.0473 43.5723 85.1914C36.1205 87.3356 35.4219 93.232 36.0041 95.9122C32.8991 97.5968 31.0879 104.144 30.5704 107.207C29.4837 132.171 33.6107 159.471 35.81 170H31.9288C26.4952 155.642 23.9724 110.462 19.7032 93.8063C15.8752 78.8725 22.6787 66.8769 27.0774 62.6014C17.9178 70.7185 16.0161 81.4264 16.2101 85.7658C1.46169 69.8378 13.4286 46.7117 21.2556 37.1396C20.9322 37.4587 18.9658 38.8626 13.6874 41.9257C7.08942 45.7545 -3.38973 43.8401 1.07361 40.9685C5.53695 38.0968 3.20825 38.2883 7.28347 27.9505C10.5437 19.6802 19.8973 17.485 24.1666 17.4212C23.8431 14.8048 24.0501 9.03604 27.4656 6.89189Z" fill="white"/>
</svg>
